<mxfile host="app.diagrams.net" modified="2021-04-01T01:53:48.959Z" agent="5.0 (Macintosh)" etag="MW00OIBOyat2-hWEBO3Z" version="14.5.3" type="github">
  <diagram id="yO9rxZS0QujHqkD119FA" name="Page-1">
    <mxGraphModel dx="1232" dy="513" grid="1" gridSize="10" guides="1" tooltips="1" connect="1" arrows="1" fold="1" page="1" pageScale="1" pageWidth="850" pageHeight="1100" math="0" shadow="0">
      <root>
        <mxCell id="0" />
        <mxCell id="1" parent="0" />
        <UserObject label="" placeholders="1" id="Q3m1vbudKN13Dh4uj_BR-216">
          <mxCell style="text;html=1;strokeColor=none;fillColor=none;align=center;verticalAlign=middle;whiteSpace=wrap;overflow=hidden;movable=0;resizable=0;rotatable=0;deletable=0;editable=0;connectable=0;container=1;" parent="1" vertex="1">
            <mxGeometry x="164" y="266.0975609756098" width="160" height="20" as="geometry">
              <mxRectangle x="164" y="266.0975609756098" width="150" height="20" as="alternateBounds" />
            </mxGeometry>
          </mxCell>
        </UserObject>
        <UserObject label="" placeholders="1" id="Q3m1vbudKN13Dh4uj_BR-256">
          <mxCell style="text;html=1;strokeColor=none;fillColor=none;align=center;verticalAlign=middle;whiteSpace=wrap;overflow=hidden;movable=0;resizable=0;rotatable=0;deletable=0;editable=0;connectable=0;container=1;" parent="1" vertex="1" collapsed="1">
            <mxGeometry x="174" y="276.0975609756098" width="150" height="20" as="geometry">
              <mxRectangle x="174" y="276.0975609756098" width="160" height="20" as="alternateBounds" />
            </mxGeometry>
          </mxCell>
        </UserObject>
        <mxCell id="Q3m1vbudKN13Dh4uj_BR-260" value="" style="group" parent="1" vertex="1" connectable="0">
          <mxGeometry x="30" y="90" width="1120" height="90" as="geometry" />
        </mxCell>
        <mxCell id="Q3m1vbudKN13Dh4uj_BR-1" value="Create Pipeline in K8s cluster" style="rounded=1;whiteSpace=wrap;html=1;container=0;" parent="Q3m1vbudKN13Dh4uj_BR-260" vertex="1">
          <mxGeometry width="110" height="43.90243902439025" as="geometry" />
        </mxCell>
        <mxCell id="Q3m1vbudKN13Dh4uj_BR-3" value="Return first log message" style="rounded=1;whiteSpace=wrap;html=1;container=0;" parent="Q3m1vbudKN13Dh4uj_BR-260" vertex="1">
          <mxGeometry x="508" width="92" height="43.90243902439025" as="geometry" />
        </mxCell>
        <mxCell id="Q3m1vbudKN13Dh4uj_BR-4" value="Pod Init &amp;amp;&amp;amp; Start to work" style="rounded=1;whiteSpace=wrap;html=1;container=0;" parent="Q3m1vbudKN13Dh4uj_BR-260" vertex="1">
          <mxGeometry x="320" width="110" height="43.9" as="geometry" />
        </mxCell>
        <mxCell id="Q3m1vbudKN13Dh4uj_BR-5" value="k8s create PR" style="rounded=1;whiteSpace=wrap;html=1;container=0;" parent="Q3m1vbudKN13Dh4uj_BR-260" vertex="1">
          <mxGeometry x="171" width="89" height="43.90243902439025" as="geometry" />
        </mxCell>
        <mxCell id="Q3m1vbudKN13Dh4uj_BR-23" value="API Return" style="rounded=1;whiteSpace=wrap;html=1;container=0;" parent="Q3m1vbudKN13Dh4uj_BR-260" vertex="1">
          <mxGeometry x="700" width="70" height="43.90243902439025" as="geometry" />
        </mxCell>
        <mxCell id="Q3m1vbudKN13Dh4uj_BR-205" value="Job Finished" style="rounded=1;whiteSpace=wrap;html=1;container=0;" parent="Q3m1vbudKN13Dh4uj_BR-260" vertex="1">
          <mxGeometry x="850" width="100" height="43.9" as="geometry" />
        </mxCell>
        <mxCell id="Q3m1vbudKN13Dh4uj_BR-237" value="K8s API" style="html=1;verticalAlign=bottom;endArrow=block;" parent="Q3m1vbudKN13Dh4uj_BR-260" edge="1">
          <mxGeometry y="0.5999999999999943" width="80" as="geometry">
            <mxPoint x="110" y="21.45365853658535" as="sourcePoint" />
            <mxPoint x="171" y="21.45365853658535" as="targetPoint" />
          </mxGeometry>
        </mxCell>
        <mxCell id="Q3m1vbudKN13Dh4uj_BR-238" value="&lt;div&gt;Tekton &lt;br&gt;&lt;/div&gt;&lt;div&gt;Controller&lt;/div&gt;" style="html=1;verticalAlign=bottom;endArrow=block;" parent="Q3m1vbudKN13Dh4uj_BR-260" edge="1">
          <mxGeometry y="-0.5" width="80" as="geometry">
            <mxPoint x="260" y="21.45121951219511" as="sourcePoint" />
            <mxPoint x="320" y="21.45121951219511" as="targetPoint" />
          </mxGeometry>
        </mxCell>
        <mxCell id="Q3m1vbudKN13Dh4uj_BR-239" value="&lt;div&gt;Datastage &lt;br&gt;&lt;/div&gt;&lt;div&gt;Parallel Job&lt;br&gt;&lt;/div&gt;" style="html=1;verticalAlign=bottom;endArrow=block;" parent="Q3m1vbudKN13Dh4uj_BR-260" edge="1">
          <mxGeometry x="30" width="80" as="geometry">
            <mxPoint x="770" y="21.402439024390247" as="sourcePoint" />
            <mxPoint x="850" y="21.402439024390247" as="targetPoint" />
          </mxGeometry>
        </mxCell>
        <mxCell id="Q3m1vbudKN13Dh4uj_BR-240" value="&lt;div&gt;Create Datastage&lt;/div&gt;&lt;div&gt;Jobrun&lt;br&gt;&lt;/div&gt;" style="html=1;verticalAlign=bottom;endArrow=block;entryX=0;entryY=0.5;entryDx=0;entryDy=0;" parent="Q3m1vbudKN13Dh4uj_BR-260" target="Q3m1vbudKN13Dh4uj_BR-23" edge="1">
          <mxGeometry x="30" width="80" as="geometry">
            <mxPoint x="600" y="21.402439024390247" as="sourcePoint" />
            <mxPoint x="690" y="21.402439024390247" as="targetPoint" />
          </mxGeometry>
        </mxCell>
        <mxCell id="Q3m1vbudKN13Dh4uj_BR-241" value="&lt;div&gt;Job_activity&amp;nbsp; &lt;br&gt;&lt;/div&gt;&lt;div&gt;Task&lt;/div&gt;" style="html=1;verticalAlign=bottom;endArrow=block;" parent="Q3m1vbudKN13Dh4uj_BR-260" edge="1">
          <mxGeometry x="30" width="80" as="geometry">
            <mxPoint x="430" y="21.402439024390247" as="sourcePoint" />
            <mxPoint x="510" y="21.95121951219511" as="targetPoint" />
          </mxGeometry>
        </mxCell>
        <mxCell id="Q3m1vbudKN13Dh4uj_BR-250" value="Pipeline Completed" style="rounded=1;whiteSpace=wrap;html=1;container=0;" parent="Q3m1vbudKN13Dh4uj_BR-260" vertex="1">
          <mxGeometry x="1020" width="100" height="43.9" as="geometry" />
        </mxCell>
        <mxCell id="Q3m1vbudKN13Dh4uj_BR-251" value="" style="shape=crossbar;whiteSpace=wrap;html=1;rounded=1;container=0;" parent="Q3m1vbudKN13Dh4uj_BR-260" vertex="1">
          <mxGeometry x="950" y="46.099999999999994" width="170" height="21.95" as="geometry" />
        </mxCell>
        <mxCell id="Q3m1vbudKN13Dh4uj_BR-252" value="&lt;div&gt;Pipeline &lt;br&gt;&lt;/div&gt;&lt;div&gt;Finish&lt;/div&gt;" style="html=1;verticalAlign=bottom;endArrow=block;" parent="Q3m1vbudKN13Dh4uj_BR-260" edge="1">
          <mxGeometry x="-80" y="0.04999999999999716" width="80" as="geometry">
            <mxPoint x="950" y="22.001219512195107" as="sourcePoint" />
            <mxPoint x="1017" y="21.452439024390245" as="targetPoint" />
          </mxGeometry>
        </mxCell>
        <UserObject label="pipeline_finish_time: 2.03s" placeholders="1" id="Q3m1vbudKN13Dh4uj_BR-253">
          <mxCell style="text;html=1;strokeColor=none;fillColor=none;align=center;verticalAlign=middle;whiteSpace=wrap;overflow=hidden;container=0;" parent="Q3m1vbudKN13Dh4uj_BR-260" vertex="1">
            <mxGeometry x="950" y="68.05000000000001" width="170" height="21.95" as="geometry" />
          </mxCell>
        </UserObject>
        <UserObject label="return_log_message: 0.16s" placeholders="1" id="Q3m1vbudKN13Dh4uj_BR-218">
          <mxCell style="text;html=1;strokeColor=none;fillColor=none;align=center;verticalAlign=middle;whiteSpace=wrap;overflow=hidden;container=0;" parent="Q3m1vbudKN13Dh4uj_BR-260" vertex="1">
            <mxGeometry x="440" y="68.04878048780489" width="160" height="21.951219512195124" as="geometry" />
          </mxCell>
        </UserObject>
        <UserObject label="create_jobrun_time: 2.67s" placeholders="1" id="Q3m1vbudKN13Dh4uj_BR-220">
          <mxCell style="text;html=1;strokeColor=none;fillColor=none;align=center;verticalAlign=middle;whiteSpace=wrap;overflow=hidden;container=0;" parent="Q3m1vbudKN13Dh4uj_BR-260" vertex="1">
            <mxGeometry x="600" y="68.04878048780489" width="160" height="21.951219512195124" as="geometry" />
          </mxCell>
        </UserObject>
        <UserObject label="job_running_time: 12.24s" placeholders="1" id="Q3m1vbudKN13Dh4uj_BR-222">
          <mxCell style="text;html=1;strokeColor=none;fillColor=none;align=center;verticalAlign=middle;whiteSpace=wrap;overflow=hidden;container=0;" parent="Q3m1vbudKN13Dh4uj_BR-260" vertex="1">
            <mxGeometry x="780" y="68.04878048780489" width="160" height="21.951219512195124" as="geometry" />
          </mxCell>
        </UserObject>
        <mxCell id="Q3m1vbudKN13Dh4uj_BR-226" value="" style="shape=crossbar;whiteSpace=wrap;html=1;rounded=1;container=0;" parent="Q3m1vbudKN13Dh4uj_BR-260" vertex="1">
          <mxGeometry y="46.099999999999994" width="320" height="21.95" as="geometry" />
        </mxCell>
        <mxCell id="Q3m1vbudKN13Dh4uj_BR-228" value="" style="shape=crossbar;whiteSpace=wrap;html=1;rounded=1;container=0;" parent="Q3m1vbudKN13Dh4uj_BR-260" vertex="1">
          <mxGeometry x="430" y="46.09756097560975" width="170" height="21.951219512195124" as="geometry" />
        </mxCell>
        <mxCell id="Q3m1vbudKN13Dh4uj_BR-229" value="" style="shape=crossbar;whiteSpace=wrap;html=1;rounded=1;container=0;" parent="Q3m1vbudKN13Dh4uj_BR-260" vertex="1">
          <mxGeometry x="600" y="46.09756097560975" width="170" height="21.951219512195124" as="geometry" />
        </mxCell>
        <mxCell id="Q3m1vbudKN13Dh4uj_BR-230" value="" style="shape=crossbar;whiteSpace=wrap;html=1;rounded=1;container=0;" parent="Q3m1vbudKN13Dh4uj_BR-260" vertex="1">
          <mxGeometry x="770" y="46.099999999999994" width="180" height="21.95" as="geometry" />
        </mxCell>
        <mxCell id="Q3m1vbudKN13Dh4uj_BR-247" value="" style="shape=crossbar;whiteSpace=wrap;html=1;rounded=1;container=0;" parent="Q3m1vbudKN13Dh4uj_BR-260" vertex="1">
          <mxGeometry x="320" y="46.099999999999994" width="110" height="21.95" as="geometry" />
        </mxCell>
        <UserObject label="pod_Init_time: 5.48s " placeholders="1" id="Q3m1vbudKN13Dh4uj_BR-249">
          <mxCell style="text;html=1;strokeColor=none;fillColor=none;align=center;verticalAlign=middle;whiteSpace=wrap;overflow=hidden;container=0;" parent="Q3m1vbudKN13Dh4uj_BR-260" vertex="1">
            <mxGeometry x="294" y="68.04878048780489" width="160" height="21.951219512195124" as="geometry" />
          </mxCell>
        </UserObject>
        <UserObject label="pod_create_time: 0.48" placeholders="1" id="Q3m1vbudKN13Dh4uj_BR-257">
          <mxCell style="text;html=1;strokeColor=none;fillColor=none;align=center;verticalAlign=middle;whiteSpace=wrap;overflow=hidden;container=0;" parent="Q3m1vbudKN13Dh4uj_BR-260" vertex="1">
            <mxGeometry x="100" y="68.04878048780489" width="160" height="21.951219512195124" as="geometry" />
          </mxCell>
        </UserObject>
        <mxCell id="YouJIXl2ew_woKFWisE6-27" value="" style="group" parent="1" vertex="1" connectable="0">
          <mxGeometry x="38" y="580" width="1121" height="92" as="geometry" />
        </mxCell>
        <mxCell id="YouJIXl2ew_woKFWisE6-1" value="Create Pipeline in K8s cluster" style="rounded=1;whiteSpace=wrap;html=1;container=0;" parent="YouJIXl2ew_woKFWisE6-27" vertex="1">
          <mxGeometry width="110" height="43.90243902439025" as="geometry" />
        </mxCell>
        <mxCell id="YouJIXl2ew_woKFWisE6-2" value="Pod Init &amp;amp;&amp;amp; Start to work" style="rounded=1;whiteSpace=wrap;html=1;container=0;" parent="YouJIXl2ew_woKFWisE6-27" vertex="1">
          <mxGeometry x="216" width="110" height="43.9" as="geometry" />
        </mxCell>
        <mxCell id="YouJIXl2ew_woKFWisE6-3" value="Return first log message" style="rounded=1;whiteSpace=wrap;html=1;container=0;" parent="YouJIXl2ew_woKFWisE6-27" vertex="1">
          <mxGeometry x="436" width="92" height="43.90243902439025" as="geometry" />
        </mxCell>
        <mxCell id="YouJIXl2ew_woKFWisE6-4" value="API Return" style="rounded=1;whiteSpace=wrap;html=1;container=0;" parent="YouJIXl2ew_woKFWisE6-27" vertex="1">
          <mxGeometry x="636" width="70" height="43.90243902439025" as="geometry" />
        </mxCell>
        <mxCell id="YouJIXl2ew_woKFWisE6-5" value="Job Finished" style="rounded=1;whiteSpace=wrap;html=1;container=0;" parent="YouJIXl2ew_woKFWisE6-27" vertex="1">
          <mxGeometry x="816" width="100" height="43.9" as="geometry" />
        </mxCell>
        <mxCell id="YouJIXl2ew_woKFWisE6-6" value="Pipeline Completed" style="rounded=1;whiteSpace=wrap;html=1;container=0;" parent="YouJIXl2ew_woKFWisE6-27" vertex="1">
          <mxGeometry x="1016" width="100" height="43.9" as="geometry" />
        </mxCell>
        <mxCell id="YouJIXl2ew_woKFWisE6-7" value="&lt;div&gt;Tekton &lt;br&gt;&lt;/div&gt;&lt;div&gt;Controller&lt;/div&gt;" style="html=1;verticalAlign=bottom;endArrow=block;" parent="YouJIXl2ew_woKFWisE6-27" edge="1">
          <mxGeometry x="-180" y="-90.5" width="80" as="geometry">
            <mxPoint x="110" y="21.451219512195166" as="sourcePoint" />
            <mxPoint x="216" y="21.55000000000001" as="targetPoint" />
          </mxGeometry>
        </mxCell>
        <mxCell id="YouJIXl2ew_woKFWisE6-8" value="Job_activity Task" style="html=1;verticalAlign=bottom;endArrow=block;" parent="YouJIXl2ew_woKFWisE6-27" edge="1">
          <mxGeometry x="37" y="-91.5" width="80" as="geometry">
            <mxPoint x="327" y="20.451219512195166" as="sourcePoint" />
            <mxPoint x="433" y="20.549999999999955" as="targetPoint" />
          </mxGeometry>
        </mxCell>
        <mxCell id="YouJIXl2ew_woKFWisE6-9" value="&lt;div&gt;Create Datastage &lt;br&gt;&lt;/div&gt;&lt;div&gt;Job Run&lt;/div&gt;" style="html=1;verticalAlign=bottom;endArrow=block;" parent="YouJIXl2ew_woKFWisE6-27" edge="1">
          <mxGeometry x="-54" y="-340" width="80" as="geometry">
            <mxPoint x="528" y="20.001219512195178" as="sourcePoint" />
            <mxPoint x="634" y="20.099999999999966" as="targetPoint" />
            <mxPoint x="-5" as="offset" />
          </mxGeometry>
        </mxCell>
        <mxCell id="YouJIXl2ew_woKFWisE6-10" value="&lt;div&gt;Datastage &lt;br&gt;&lt;/div&gt;&lt;div&gt;Parallel Job&lt;/div&gt;" style="html=1;verticalAlign=bottom;endArrow=block;" parent="YouJIXl2ew_woKFWisE6-27" edge="1">
          <mxGeometry x="-54" y="-340" width="80" as="geometry">
            <mxPoint x="706" y="20.00121951219512" as="sourcePoint" />
            <mxPoint x="812" y="20.09999999999991" as="targetPoint" />
            <mxPoint x="-3" as="offset" />
          </mxGeometry>
        </mxCell>
        <mxCell id="YouJIXl2ew_woKFWisE6-12" value="&lt;div&gt;Pipeline&lt;/div&gt;&lt;div&gt;Finish&lt;br&gt;&lt;/div&gt;" style="html=1;verticalAlign=bottom;endArrow=block;" parent="YouJIXl2ew_woKFWisE6-27" edge="1">
          <mxGeometry x="-54" y="-340" width="80" as="geometry">
            <mxPoint x="916" y="21.45121951219511" as="sourcePoint" />
            <mxPoint x="1016" y="22" as="targetPoint" />
            <mxPoint y="-2" as="offset" />
            <Array as="points" />
          </mxGeometry>
        </mxCell>
        <UserObject label="pipeline_finish_time: 1.79s" placeholders="1" id="YouJIXl2ew_woKFWisE6-13">
          <mxCell style="text;html=1;strokeColor=none;fillColor=none;align=center;verticalAlign=middle;whiteSpace=wrap;overflow=hidden;container=0;" parent="YouJIXl2ew_woKFWisE6-27" vertex="1">
            <mxGeometry x="951" y="68.05000000000001" width="170" height="21.95" as="geometry" />
          </mxCell>
        </UserObject>
        <UserObject label="return_log_message: 0.57s" placeholders="1" id="YouJIXl2ew_woKFWisE6-14">
          <mxCell style="text;html=1;strokeColor=none;fillColor=none;align=center;verticalAlign=middle;whiteSpace=wrap;overflow=hidden;container=0;" parent="YouJIXl2ew_woKFWisE6-27" vertex="1">
            <mxGeometry x="343.5" y="68.04878048780489" width="160" height="21.951219512195124" as="geometry" />
          </mxCell>
        </UserObject>
        <UserObject label="create_jobrun_time: 3.9s" placeholders="1" id="YouJIXl2ew_woKFWisE6-15">
          <mxCell style="text;html=1;strokeColor=none;fillColor=none;align=center;verticalAlign=middle;whiteSpace=wrap;overflow=hidden;container=0;" parent="YouJIXl2ew_woKFWisE6-27" vertex="1">
            <mxGeometry x="556" y="68.04878048780489" width="160" height="21.951219512195124" as="geometry" />
          </mxCell>
        </UserObject>
        <UserObject label="job_running_time: 5s" placeholders="1" id="YouJIXl2ew_woKFWisE6-16">
          <mxCell style="text;html=1;strokeColor=none;fillColor=none;align=center;verticalAlign=middle;whiteSpace=wrap;overflow=hidden;container=0;" parent="YouJIXl2ew_woKFWisE6-27" vertex="1">
            <mxGeometry x="781" y="68.04878048780489" width="160" height="21.951219512195124" as="geometry" />
          </mxCell>
        </UserObject>
        <UserObject label="pod_create_Init_time: 7.12s " placeholders="1" id="YouJIXl2ew_woKFWisE6-17">
          <mxCell style="text;html=1;strokeColor=none;fillColor=none;align=center;verticalAlign=middle;whiteSpace=wrap;overflow=hidden;container=0;" parent="YouJIXl2ew_woKFWisE6-27" vertex="1">
            <mxGeometry x="86" y="70.04878048780489" width="160" height="21.951219512195124" as="geometry" />
          </mxCell>
        </UserObject>
        <mxCell id="YouJIXl2ew_woKFWisE6-19" value="" style="shape=crossbar;whiteSpace=wrap;html=1;rounded=1;container=0;" parent="YouJIXl2ew_woKFWisE6-27" vertex="1">
          <mxGeometry x="951" y="48.10000000000002" width="170" height="21.95" as="geometry" />
        </mxCell>
        <mxCell id="YouJIXl2ew_woKFWisE6-20" value="" style="shape=crossbar;whiteSpace=wrap;html=1;rounded=1;container=0;" parent="YouJIXl2ew_woKFWisE6-27" vertex="1">
          <mxGeometry x="1" y="48.10000000000002" width="320" height="21.95" as="geometry" />
        </mxCell>
        <mxCell id="YouJIXl2ew_woKFWisE6-22" value="" style="shape=crossbar;whiteSpace=wrap;html=1;rounded=1;container=0;" parent="YouJIXl2ew_woKFWisE6-27" vertex="1">
          <mxGeometry x="526" y="48.10000000000002" width="245" height="21.95" as="geometry" />
        </mxCell>
        <mxCell id="YouJIXl2ew_woKFWisE6-23" value="" style="shape=crossbar;whiteSpace=wrap;html=1;rounded=1;container=0;" parent="YouJIXl2ew_woKFWisE6-27" vertex="1">
          <mxGeometry x="771" y="48.10000000000002" width="180" height="21.95" as="geometry" />
        </mxCell>
        <mxCell id="YouJIXl2ew_woKFWisE6-26" value="" style="shape=crossbar;whiteSpace=wrap;html=1;rounded=1;container=0;" parent="YouJIXl2ew_woKFWisE6-27" vertex="1">
          <mxGeometry x="321" y="48.10000000000002" width="205" height="21.95" as="geometry" />
        </mxCell>
        <mxCell id="YouJIXl2ew_woKFWisE6-28" value="" style="group" parent="1" vertex="1" connectable="0">
          <mxGeometry x="39" y="741" width="1121" height="92" as="geometry" />
        </mxCell>
        <mxCell id="YouJIXl2ew_woKFWisE6-29" value="Create Pipeline in K8s cluster" style="rounded=1;whiteSpace=wrap;html=1;container=0;" parent="YouJIXl2ew_woKFWisE6-28" vertex="1">
          <mxGeometry width="110" height="43.90243902439025" as="geometry" />
        </mxCell>
        <mxCell id="YouJIXl2ew_woKFWisE6-30" value="Create Tekton Run" style="rounded=1;whiteSpace=wrap;html=1;container=0;" parent="YouJIXl2ew_woKFWisE6-28" vertex="1">
          <mxGeometry x="216" width="154" height="43.9" as="geometry" />
        </mxCell>
        <mxCell id="YouJIXl2ew_woKFWisE6-31" value="Call datastage API to get API response" style="rounded=1;whiteSpace=wrap;html=1;container=0;" parent="YouJIXl2ew_woKFWisE6-28" vertex="1">
          <mxGeometry x="477" width="144" height="43.9" as="geometry" />
        </mxCell>
        <mxCell id="YouJIXl2ew_woKFWisE6-32" value="Datastage Job Complete" style="rounded=1;whiteSpace=wrap;html=1;container=0;" parent="YouJIXl2ew_woKFWisE6-28" vertex="1">
          <mxGeometry x="730" width="130" height="43.9" as="geometry" />
        </mxCell>
        <mxCell id="YouJIXl2ew_woKFWisE6-34" value="Pipeline Completed" style="rounded=1;whiteSpace=wrap;html=1;container=0;" parent="YouJIXl2ew_woKFWisE6-28" vertex="1">
          <mxGeometry x="990" width="131" height="43.9" as="geometry" />
        </mxCell>
        <mxCell id="YouJIXl2ew_woKFWisE6-35" value="&lt;div&gt;Tekton Controller&lt;/div&gt;" style="html=1;verticalAlign=bottom;endArrow=block;" parent="YouJIXl2ew_woKFWisE6-28" edge="1">
          <mxGeometry x="-180" y="-90.5" width="80" as="geometry">
            <mxPoint x="110" y="21.451219512195166" as="sourcePoint" />
            <mxPoint x="216" y="21.55000000000001" as="targetPoint" />
          </mxGeometry>
        </mxCell>
        <mxCell id="YouJIXl2ew_woKFWisE6-36" value="Custom Controller&amp;nbsp; " style="html=1;verticalAlign=bottom;endArrow=block;" parent="YouJIXl2ew_woKFWisE6-28" edge="1">
          <mxGeometry x="79" y="-91.5" width="80" as="geometry">
            <mxPoint x="369" y="20.451219512195166" as="sourcePoint" />
            <mxPoint x="475" y="20.549999999999955" as="targetPoint" />
          </mxGeometry>
        </mxCell>
        <mxCell id="YouJIXl2ew_woKFWisE6-37" value="Datastage&amp;nbsp; Job" style="html=1;verticalAlign=bottom;endArrow=block;" parent="YouJIXl2ew_woKFWisE6-28" edge="1">
          <mxGeometry x="-4" y="-338.55" width="80" as="geometry">
            <mxPoint x="621" y="21.45" as="sourcePoint" />
            <mxPoint x="731" y="21" as="targetPoint" />
            <mxPoint x="-5" as="offset" />
          </mxGeometry>
        </mxCell>
        <mxCell id="YouJIXl2ew_woKFWisE6-38" value="&lt;div&gt;Customer/Tekton &lt;br&gt;&lt;/div&gt;&lt;div&gt;Controller&lt;/div&gt;" style="html=1;verticalAlign=bottom;endArrow=block;" parent="YouJIXl2ew_woKFWisE6-28" edge="1">
          <mxGeometry x="68" y="-340" width="80" as="geometry">
            <mxPoint x="861" y="20" as="sourcePoint" />
            <mxPoint x="987" y="20" as="targetPoint" />
            <mxPoint x="-3" as="offset" />
          </mxGeometry>
        </mxCell>
        <UserObject label="pipeline_finish_time: 0.5s" placeholders="1" id="YouJIXl2ew_woKFWisE6-40">
          <mxCell style="text;html=1;strokeColor=none;fillColor=none;align=center;verticalAlign=middle;whiteSpace=wrap;overflow=hidden;container=0;" parent="YouJIXl2ew_woKFWisE6-28" vertex="1">
            <mxGeometry x="905" y="68.05000000000001" width="170" height="21.95" as="geometry" />
          </mxCell>
        </UserObject>
        <UserObject label="create_jobrun_time: 2.11s" placeholders="1" id="YouJIXl2ew_woKFWisE6-41">
          <mxCell style="text;html=1;strokeColor=none;fillColor=none;align=center;verticalAlign=middle;whiteSpace=wrap;overflow=hidden;container=0;" parent="YouJIXl2ew_woKFWisE6-28" vertex="1">
            <mxGeometry x="415" y="70.04878048780489" width="160" height="21.951219512195124" as="geometry" />
          </mxCell>
        </UserObject>
        <UserObject label="job_running_time: 2.7s" placeholders="1" id="YouJIXl2ew_woKFWisE6-42">
          <mxCell style="text;html=1;strokeColor=none;fillColor=none;align=center;verticalAlign=middle;whiteSpace=wrap;overflow=hidden;container=0;" parent="YouJIXl2ew_woKFWisE6-28" vertex="1">
            <mxGeometry x="651" y="68.04878048780489" width="160" height="21.951219512195124" as="geometry" />
          </mxCell>
        </UserObject>
        <UserObject label="pre-submit_jobrun_time: 0.027s " placeholders="1" id="YouJIXl2ew_woKFWisE6-44">
          <mxCell style="text;html=1;strokeColor=none;fillColor=none;align=center;verticalAlign=middle;whiteSpace=wrap;overflow=hidden;container=0;" parent="YouJIXl2ew_woKFWisE6-28" vertex="1">
            <mxGeometry x="111" y="70.05" width="184" height="21.95" as="geometry" />
          </mxCell>
        </UserObject>
        <mxCell id="YouJIXl2ew_woKFWisE6-46" value="" style="shape=crossbar;whiteSpace=wrap;html=1;rounded=1;container=0;" parent="YouJIXl2ew_woKFWisE6-28" vertex="1">
          <mxGeometry x="1" y="48.1" width="369" height="21.95" as="geometry" />
        </mxCell>
        <mxCell id="YouJIXl2ew_woKFWisE6-47" value="" style="shape=crossbar;whiteSpace=wrap;html=1;rounded=1;container=0;" parent="YouJIXl2ew_woKFWisE6-28" vertex="1">
          <mxGeometry x="620" y="48.1" width="240" height="21.95" as="geometry" />
        </mxCell>
        <mxCell id="YouJIXl2ew_woKFWisE6-48" value="" style="shape=crossbar;whiteSpace=wrap;html=1;rounded=1;container=0;" parent="YouJIXl2ew_woKFWisE6-28" vertex="1">
          <mxGeometry x="860" y="48.1" width="260" height="21.95" as="geometry" />
        </mxCell>
        <mxCell id="YouJIXl2ew_woKFWisE6-49" value="" style="shape=crossbar;whiteSpace=wrap;html=1;rounded=1;container=0;" parent="YouJIXl2ew_woKFWisE6-28" vertex="1">
          <mxGeometry x="370" y="48.1" width="250" height="21.95" as="geometry" />
        </mxCell>
        <mxCell id="YouJIXl2ew_woKFWisE6-50" value="" style="group" parent="1" vertex="1" connectable="0">
          <mxGeometry x="30" y="332.1" width="1120" height="110" as="geometry" />
        </mxCell>
        <mxCell id="YouJIXl2ew_woKFWisE6-61" value="&lt;div&gt;Job_activity&amp;nbsp; &lt;br&gt;&lt;/div&gt;&lt;div&gt;Task&lt;/div&gt;" style="html=1;verticalAlign=bottom;endArrow=block;" parent="YouJIXl2ew_woKFWisE6-50" edge="1">
          <mxGeometry x="30" width="80" as="geometry">
            <mxPoint x="430" y="21.402439024390247" as="sourcePoint" />
            <mxPoint x="510" y="21.95121951219511" as="targetPoint" />
          </mxGeometry>
        </mxCell>
        <mxCell id="YouJIXl2ew_woKFWisE6-58" value="&lt;div&gt;Tekton &lt;br&gt;&lt;/div&gt;&lt;div&gt;Controller&lt;/div&gt;" style="html=1;verticalAlign=bottom;endArrow=block;" parent="YouJIXl2ew_woKFWisE6-50" edge="1">
          <mxGeometry x="-13" y="-0.5" width="80" as="geometry">
            <mxPoint x="247" y="21.45121951219511" as="sourcePoint" />
            <mxPoint x="307" y="21.45121951219511" as="targetPoint" />
          </mxGeometry>
        </mxCell>
        <mxCell id="YouJIXl2ew_woKFWisE6-76" value="" style="shape=ext;rounded=1;html=1;whiteSpace=wrap;fillColor=#CCE5FF;strokeColor=#3333FF;dashed=1;dashPattern=1 4;" parent="YouJIXl2ew_woKFWisE6-50" vertex="1">
          <mxGeometry x="310" y="-11.95" width="130" height="121.95" as="geometry" />
        </mxCell>
        <mxCell id="YouJIXl2ew_woKFWisE6-51" value="Create Pipeline in K8s cluster" style="rounded=1;whiteSpace=wrap;html=1;container=0;" parent="YouJIXl2ew_woKFWisE6-50" vertex="1">
          <mxGeometry x="-19" width="110" height="43.90243902439025" as="geometry" />
        </mxCell>
        <mxCell id="YouJIXl2ew_woKFWisE6-52" value="Return first log message" style="rounded=1;whiteSpace=wrap;html=1;container=0;" parent="YouJIXl2ew_woKFWisE6-50" vertex="1">
          <mxGeometry x="508" width="92" height="43.90243902439025" as="geometry" />
        </mxCell>
        <mxCell id="YouJIXl2ew_woKFWisE6-53" value="Pod Init &amp;amp;&amp;amp; Start to work" style="rounded=1;whiteSpace=wrap;html=1;container=0;" parent="YouJIXl2ew_woKFWisE6-50" vertex="1">
          <mxGeometry x="320" width="110" height="43.9" as="geometry" />
        </mxCell>
        <mxCell id="YouJIXl2ew_woKFWisE6-54" value="k8s create CR" style="rounded=1;whiteSpace=wrap;html=1;container=0;" parent="YouJIXl2ew_woKFWisE6-50" vertex="1">
          <mxGeometry x="152" width="89" height="43.90243902439025" as="geometry" />
        </mxCell>
        <mxCell id="YouJIXl2ew_woKFWisE6-55" value="API Return" style="rounded=1;whiteSpace=wrap;html=1;container=0;" parent="YouJIXl2ew_woKFWisE6-50" vertex="1">
          <mxGeometry x="700" width="70" height="43.90243902439025" as="geometry" />
        </mxCell>
        <mxCell id="YouJIXl2ew_woKFWisE6-56" value="Job Finished" style="rounded=1;whiteSpace=wrap;html=1;container=0;" parent="YouJIXl2ew_woKFWisE6-50" vertex="1">
          <mxGeometry x="850" width="100" height="43.9" as="geometry" />
        </mxCell>
        <mxCell id="YouJIXl2ew_woKFWisE6-57" value="K8s API" style="html=1;verticalAlign=bottom;endArrow=block;" parent="YouJIXl2ew_woKFWisE6-50" edge="1">
          <mxGeometry x="-19" y="0.5999999999999943" width="80" as="geometry">
            <mxPoint x="91" y="21.45365853658535" as="sourcePoint" />
            <mxPoint x="152" y="21.45365853658535" as="targetPoint" />
          </mxGeometry>
        </mxCell>
        <mxCell id="YouJIXl2ew_woKFWisE6-59" value="&lt;div&gt;Datastage &lt;br&gt;&lt;/div&gt;&lt;div&gt;Parallel Job&lt;br&gt;&lt;/div&gt;" style="html=1;verticalAlign=bottom;endArrow=block;" parent="YouJIXl2ew_woKFWisE6-50" edge="1">
          <mxGeometry x="30" width="80" as="geometry">
            <mxPoint x="770" y="21.402439024390247" as="sourcePoint" />
            <mxPoint x="850" y="21.402439024390247" as="targetPoint" />
          </mxGeometry>
        </mxCell>
        <mxCell id="YouJIXl2ew_woKFWisE6-60" value="&lt;div&gt;Create Datastage&lt;/div&gt;&lt;div&gt;Jobrun&lt;br&gt;&lt;/div&gt;" style="html=1;verticalAlign=bottom;endArrow=block;entryX=0;entryY=0.5;entryDx=0;entryDy=0;" parent="YouJIXl2ew_woKFWisE6-50" target="YouJIXl2ew_woKFWisE6-55" edge="1">
          <mxGeometry x="30" width="80" as="geometry">
            <mxPoint x="600" y="21.402439024390247" as="sourcePoint" />
            <mxPoint x="690" y="21.402439024390247" as="targetPoint" />
          </mxGeometry>
        </mxCell>
        <mxCell id="YouJIXl2ew_woKFWisE6-62" value="Pipeline Completed" style="rounded=1;whiteSpace=wrap;html=1;container=0;" parent="YouJIXl2ew_woKFWisE6-50" vertex="1">
          <mxGeometry x="1020" width="100" height="43.9" as="geometry" />
        </mxCell>
        <mxCell id="YouJIXl2ew_woKFWisE6-63" value="" style="shape=crossbar;whiteSpace=wrap;html=1;rounded=1;container=0;" parent="YouJIXl2ew_woKFWisE6-50" vertex="1">
          <mxGeometry x="950" y="46.099999999999994" width="170" height="21.95" as="geometry" />
        </mxCell>
        <mxCell id="YouJIXl2ew_woKFWisE6-64" value="&lt;div&gt;Pipeline &lt;br&gt;&lt;/div&gt;&lt;div&gt;Finish&lt;/div&gt;" style="html=1;verticalAlign=bottom;endArrow=block;" parent="YouJIXl2ew_woKFWisE6-50" edge="1">
          <mxGeometry x="-80" y="0.04999999999999716" width="80" as="geometry">
            <mxPoint x="950" y="22.001219512195107" as="sourcePoint" />
            <mxPoint x="1017" y="21.452439024390245" as="targetPoint" />
          </mxGeometry>
        </mxCell>
        <UserObject label="pipeline_finish_time: 2.03s" placeholders="1" id="YouJIXl2ew_woKFWisE6-65">
          <mxCell style="text;html=1;strokeColor=none;fillColor=none;align=center;verticalAlign=middle;whiteSpace=wrap;overflow=hidden;container=0;" parent="YouJIXl2ew_woKFWisE6-50" vertex="1">
            <mxGeometry x="950" y="68.05000000000001" width="170" height="21.95" as="geometry" />
          </mxCell>
        </UserObject>
        <UserObject label="return_log_message: 0.16s" placeholders="1" id="YouJIXl2ew_woKFWisE6-66">
          <mxCell style="text;html=1;strokeColor=none;fillColor=none;align=center;verticalAlign=middle;whiteSpace=wrap;overflow=hidden;container=0;" parent="YouJIXl2ew_woKFWisE6-50" vertex="1">
            <mxGeometry x="440" y="68.04878048780489" width="160" height="21.951219512195124" as="geometry" />
          </mxCell>
        </UserObject>
        <UserObject label="create_jobrun_time: 2.67s" placeholders="1" id="YouJIXl2ew_woKFWisE6-67">
          <mxCell style="text;html=1;strokeColor=none;fillColor=none;align=center;verticalAlign=middle;whiteSpace=wrap;overflow=hidden;container=0;" parent="YouJIXl2ew_woKFWisE6-50" vertex="1">
            <mxGeometry x="600" y="68.04878048780489" width="160" height="21.951219512195124" as="geometry" />
          </mxCell>
        </UserObject>
        <UserObject label="job_running_time: 12.24s" placeholders="1" id="YouJIXl2ew_woKFWisE6-68">
          <mxCell style="text;html=1;strokeColor=none;fillColor=none;align=center;verticalAlign=middle;whiteSpace=wrap;overflow=hidden;container=0;" parent="YouJIXl2ew_woKFWisE6-50" vertex="1">
            <mxGeometry x="780" y="68.04878048780489" width="160" height="21.951219512195124" as="geometry" />
          </mxCell>
        </UserObject>
        <mxCell id="YouJIXl2ew_woKFWisE6-69" value="" style="shape=crossbar;whiteSpace=wrap;html=1;rounded=1;container=0;" parent="YouJIXl2ew_woKFWisE6-50" vertex="1">
          <mxGeometry x="-20" y="46.1" width="340" height="21.95" as="geometry" />
        </mxCell>
        <mxCell id="YouJIXl2ew_woKFWisE6-70" value="" style="shape=crossbar;whiteSpace=wrap;html=1;rounded=1;container=0;" parent="YouJIXl2ew_woKFWisE6-50" vertex="1">
          <mxGeometry x="430" y="46.09756097560975" width="170" height="21.951219512195124" as="geometry" />
        </mxCell>
        <mxCell id="YouJIXl2ew_woKFWisE6-71" value="" style="shape=crossbar;whiteSpace=wrap;html=1;rounded=1;container=0;" parent="YouJIXl2ew_woKFWisE6-50" vertex="1">
          <mxGeometry x="600" y="46.09756097560975" width="170" height="21.951219512195124" as="geometry" />
        </mxCell>
        <mxCell id="YouJIXl2ew_woKFWisE6-72" value="" style="shape=crossbar;whiteSpace=wrap;html=1;rounded=1;container=0;" parent="YouJIXl2ew_woKFWisE6-50" vertex="1">
          <mxGeometry x="770" y="46.099999999999994" width="180" height="21.95" as="geometry" />
        </mxCell>
        <mxCell id="YouJIXl2ew_woKFWisE6-73" value="" style="shape=crossbar;whiteSpace=wrap;html=1;rounded=1;container=0;" parent="YouJIXl2ew_woKFWisE6-50" vertex="1">
          <mxGeometry x="320" y="46.099999999999994" width="110" height="21.95" as="geometry" />
        </mxCell>
        <UserObject label="pod_Init_time: 5.48s " placeholders="1" id="YouJIXl2ew_woKFWisE6-74">
          <mxCell style="text;html=1;strokeColor=none;fillColor=none;align=center;verticalAlign=middle;whiteSpace=wrap;overflow=hidden;container=0;" parent="YouJIXl2ew_woKFWisE6-50" vertex="1">
            <mxGeometry x="294" y="68.04878048780489" width="160" height="21.951219512195124" as="geometry" />
          </mxCell>
        </UserObject>
        <UserObject label="pod_create_time: 0.48" placeholders="1" id="YouJIXl2ew_woKFWisE6-75">
          <mxCell style="text;html=1;strokeColor=none;fillColor=none;align=center;verticalAlign=middle;whiteSpace=wrap;overflow=hidden;container=0;" parent="YouJIXl2ew_woKFWisE6-50" vertex="1">
            <mxGeometry x="81" y="68.04878048780489" width="160" height="21.951219512195124" as="geometry" />
          </mxCell>
        </UserObject>
        <mxCell id="YouJIXl2ew_woKFWisE6-83" value="" style="endArrow=none;html=1;rounded=0;dashed=1;dashPattern=1 2;exitX=0.954;exitY=0.048;exitDx=0;exitDy=0;entryX=0.031;entryY=0.95;entryDx=0;entryDy=0;entryPerimeter=0;exitPerimeter=0;" parent="YouJIXl2ew_woKFWisE6-50" source="YouJIXl2ew_woKFWisE6-76" target="YouJIXl2ew_woKFWisE6-76" edge="1">
          <mxGeometry relative="1" as="geometry">
            <mxPoint x="490" y="8.900000000000006" as="sourcePoint" />
            <mxPoint x="320" y="98.9" as="targetPoint" />
          </mxGeometry>
        </mxCell>
        <mxCell id="YouJIXl2ew_woKFWisE6-85" value="" style="endArrow=none;html=1;rounded=0;dashed=1;dashPattern=1 2;entryX=0.954;entryY=0.991;entryDx=0;entryDy=0;entryPerimeter=0;" parent="YouJIXl2ew_woKFWisE6-50" target="YouJIXl2ew_woKFWisE6-76" edge="1">
          <mxGeometry relative="1" as="geometry">
            <mxPoint x="320" y="-11.099999999999994" as="sourcePoint" />
            <mxPoint x="324.03" y="113.90249999999995" as="targetPoint" />
          </mxGeometry>
        </mxCell>
        <mxCell id="YouJIXl2ew_woKFWisE6-77" value="" style="endArrow=none;html=1;rounded=0;dashed=1;dashPattern=1 2;" parent="1" edge="1">
          <mxGeometry relative="1" as="geometry">
            <mxPoint x="520" y="341" as="sourcePoint" />
            <mxPoint x="680" y="341" as="targetPoint" />
          </mxGeometry>
        </mxCell>
        <mxCell id="YouJIXl2ew_woKFWisE6-79" value="" style="endArrow=none;html=1;rounded=0;dashed=1;dashPattern=1 2;" parent="1" edge="1">
          <mxGeometry relative="1" as="geometry">
            <mxPoint x="520" y="341" as="sourcePoint" />
            <mxPoint x="680" y="341" as="targetPoint" />
          </mxGeometry>
        </mxCell>
        <mxCell id="YouJIXl2ew_woKFWisE6-81" value="" style="endArrow=none;html=1;rounded=0;dashed=1;dashPattern=1 2;" parent="1" edge="1">
          <mxGeometry relative="1" as="geometry">
            <mxPoint x="520" y="341" as="sourcePoint" />
            <mxPoint x="680" y="341" as="targetPoint" />
          </mxGeometry>
        </mxCell>
        <mxCell id="Iup4wpJGKg3ylM2RcD65-1" value="" style="group" parent="1" vertex="1" connectable="0">
          <mxGeometry x="50" y="865" width="1121" height="92" as="geometry" />
        </mxCell>
        <mxCell id="Iup4wpJGKg3ylM2RcD65-2" value="Create Pipeline in K8s cluster" style="rounded=1;whiteSpace=wrap;html=1;container=0;" parent="Iup4wpJGKg3ylM2RcD65-1" vertex="1">
          <mxGeometry width="120" height="43.9" as="geometry" />
        </mxCell>
        <mxCell id="Iup4wpJGKg3ylM2RcD65-3" value="Create Tekton Run" style="rounded=1;whiteSpace=wrap;html=1;container=0;" parent="Iup4wpJGKg3ylM2RcD65-1" vertex="1">
          <mxGeometry x="216" width="124" height="43.9" as="geometry" />
        </mxCell>
        <mxCell id="Iup4wpJGKg3ylM2RcD65-4" value="Call datastage Create Run API &amp;amp;&amp;amp;&amp;nbsp; Datastage Job Complete " style="rounded=1;whiteSpace=wrap;html=1;container=0;" parent="Iup4wpJGKg3ylM2RcD65-1" vertex="1">
          <mxGeometry x="460" width="360" height="43.9" as="geometry" />
        </mxCell>
        <mxCell id="Iup4wpJGKg3ylM2RcD65-6" value="Pipeline Completed" style="rounded=1;whiteSpace=wrap;html=1;container=0;" parent="Iup4wpJGKg3ylM2RcD65-1" vertex="1">
          <mxGeometry x="990" width="131" height="43.9" as="geometry" />
        </mxCell>
        <mxCell id="Iup4wpJGKg3ylM2RcD65-7" value="&lt;div&gt;Tekton Controller&lt;/div&gt;" style="html=1;verticalAlign=bottom;endArrow=block;exitX=1;exitY=0.5;exitDx=0;exitDy=0;" parent="Iup4wpJGKg3ylM2RcD65-1" source="Iup4wpJGKg3ylM2RcD65-2" edge="1">
          <mxGeometry x="-180" y="-90.5" width="80" as="geometry">
            <mxPoint x="130" y="22" as="sourcePoint" />
            <mxPoint x="216" y="21.55000000000001" as="targetPoint" />
          </mxGeometry>
        </mxCell>
        <mxCell id="Iup4wpJGKg3ylM2RcD65-8" value="Custom Controller&amp;nbsp; " style="html=1;verticalAlign=bottom;endArrow=block;exitX=1;exitY=0.5;exitDx=0;exitDy=0;" parent="Iup4wpJGKg3ylM2RcD65-1" source="Iup4wpJGKg3ylM2RcD65-3" edge="1">
          <mxGeometry x="79" y="-91.5" width="80" as="geometry">
            <mxPoint x="369" y="20.451219512195166" as="sourcePoint" />
            <mxPoint x="460" y="21" as="targetPoint" />
          </mxGeometry>
        </mxCell>
        <mxCell id="Iup4wpJGKg3ylM2RcD65-10" value="&lt;div&gt;Customer/Tekton Controller&lt;/div&gt;" style="html=1;verticalAlign=bottom;endArrow=block;" parent="Iup4wpJGKg3ylM2RcD65-1" edge="1">
          <mxGeometry x="68" y="-340" width="80" as="geometry">
            <mxPoint x="820" y="20" as="sourcePoint" />
            <mxPoint x="987" y="20" as="targetPoint" />
            <mxPoint x="-3" as="offset" />
          </mxGeometry>
        </mxCell>
        <UserObject label="pipeline_finish_time: 0.5s" placeholders="1" id="Iup4wpJGKg3ylM2RcD65-11">
          <mxCell style="text;html=1;strokeColor=none;fillColor=none;align=center;verticalAlign=middle;whiteSpace=wrap;overflow=hidden;container=0;" parent="Iup4wpJGKg3ylM2RcD65-1" vertex="1">
            <mxGeometry x="905" y="68.05000000000001" width="170" height="21.95" as="geometry" />
          </mxCell>
        </UserObject>
        <UserObject label="datastage_jobrun_time: 4.81s" placeholders="1" id="Iup4wpJGKg3ylM2RcD65-12">
          <mxCell style="text;html=1;strokeColor=none;fillColor=none;align=center;verticalAlign=middle;whiteSpace=wrap;overflow=hidden;container=0;" parent="Iup4wpJGKg3ylM2RcD65-1" vertex="1">
            <mxGeometry x="530" y="70.05" width="190" height="21.95" as="geometry" />
          </mxCell>
        </UserObject>
        <UserObject label="pre-submit_jobrun_time: 0.027s " placeholders="1" id="Iup4wpJGKg3ylM2RcD65-14">
          <mxCell style="text;html=1;strokeColor=none;fillColor=none;align=center;verticalAlign=middle;whiteSpace=wrap;overflow=hidden;container=0;" parent="Iup4wpJGKg3ylM2RcD65-1" vertex="1">
            <mxGeometry x="111" y="70.05" width="184" height="21.95" as="geometry" />
          </mxCell>
        </UserObject>
        <mxCell id="Iup4wpJGKg3ylM2RcD65-15" value="" style="shape=crossbar;whiteSpace=wrap;html=1;rounded=1;container=0;" parent="Iup4wpJGKg3ylM2RcD65-1" vertex="1">
          <mxGeometry x="1" y="48.1" width="459" height="21.95" as="geometry" />
        </mxCell>
        <mxCell id="Iup4wpJGKg3ylM2RcD65-16" value="" style="shape=crossbar;whiteSpace=wrap;html=1;rounded=1;container=0;" parent="Iup4wpJGKg3ylM2RcD65-1" vertex="1">
          <mxGeometry x="460" y="48.1" width="360" height="21.95" as="geometry" />
        </mxCell>
        <mxCell id="Iup4wpJGKg3ylM2RcD65-17" value="" style="shape=crossbar;whiteSpace=wrap;html=1;rounded=1;container=0;" parent="Iup4wpJGKg3ylM2RcD65-1" vertex="1">
          <mxGeometry x="820" y="48.1" width="300" height="21.95" as="geometry" />
        </mxCell>
        <mxCell id="58CB03ESVvraGdQvV3Id-1" value="" style="group" vertex="1" connectable="0" parent="1">
          <mxGeometry x="50" y="1020" width="1120" height="90" as="geometry" />
        </mxCell>
        <mxCell id="58CB03ESVvraGdQvV3Id-2" value="Create Pipeline in K8s cluster" style="rounded=1;whiteSpace=wrap;html=1;container=0;" vertex="1" parent="58CB03ESVvraGdQvV3Id-1">
          <mxGeometry width="110" height="43.90243902439025" as="geometry" />
        </mxCell>
        <mxCell id="58CB03ESVvraGdQvV3Id-3" value="Call datastage Create Run API" style="rounded=1;whiteSpace=wrap;html=1;container=0;" vertex="1" parent="58CB03ESVvraGdQvV3Id-1">
          <mxGeometry x="540" width="120" height="43.9" as="geometry" />
        </mxCell>
        <mxCell id="58CB03ESVvraGdQvV3Id-4" value="Pod Init &amp;amp;&amp;amp; Start to work" style="rounded=1;whiteSpace=wrap;html=1;container=0;" vertex="1" parent="58CB03ESVvraGdQvV3Id-1">
          <mxGeometry x="320" width="110" height="43.9" as="geometry" />
        </mxCell>
        <mxCell id="58CB03ESVvraGdQvV3Id-5" value="k8s create PR" style="rounded=1;whiteSpace=wrap;html=1;container=0;" vertex="1" parent="58CB03ESVvraGdQvV3Id-1">
          <mxGeometry x="171" width="89" height="43.90243902439025" as="geometry" />
        </mxCell>
        <mxCell id="58CB03ESVvraGdQvV3Id-7" value="Job Run &amp;amp;&amp;amp; Finished" style="rounded=1;whiteSpace=wrap;html=1;container=0;" vertex="1" parent="58CB03ESVvraGdQvV3Id-1">
          <mxGeometry x="760" width="160" height="43.9" as="geometry" />
        </mxCell>
        <mxCell id="58CB03ESVvraGdQvV3Id-8" value="K8s API" style="html=1;verticalAlign=bottom;endArrow=block;" edge="1" parent="58CB03ESVvraGdQvV3Id-1">
          <mxGeometry y="0.5999999999999943" width="80" as="geometry">
            <mxPoint x="110" y="21.45365853658535" as="sourcePoint" />
            <mxPoint x="171" y="21.45365853658535" as="targetPoint" />
          </mxGeometry>
        </mxCell>
        <mxCell id="58CB03ESVvraGdQvV3Id-9" value="&lt;div&gt;Tekton &lt;br&gt;&lt;/div&gt;&lt;div&gt;Controller&lt;/div&gt;" style="html=1;verticalAlign=bottom;endArrow=block;" edge="1" parent="58CB03ESVvraGdQvV3Id-1">
          <mxGeometry y="-0.5" width="80" as="geometry">
            <mxPoint x="260" y="21.45121951219511" as="sourcePoint" />
            <mxPoint x="320" y="21.45121951219511" as="targetPoint" />
          </mxGeometry>
        </mxCell>
        <mxCell id="58CB03ESVvraGdQvV3Id-10" value="&lt;div&gt;Datastage &lt;br&gt;&lt;/div&gt;&lt;div&gt;Parallel Job&lt;br&gt;&lt;/div&gt;" style="html=1;verticalAlign=bottom;endArrow=block;entryX=0;entryY=0.5;entryDx=0;entryDy=0;" edge="1" parent="58CB03ESVvraGdQvV3Id-1" target="58CB03ESVvraGdQvV3Id-7">
          <mxGeometry x="-100" y="0.05" width="80" as="geometry">
            <mxPoint x="660" y="22" as="sourcePoint" />
            <mxPoint x="720" y="21.452439024390248" as="targetPoint" />
          </mxGeometry>
        </mxCell>
        <mxCell id="58CB03ESVvraGdQvV3Id-12" value="&lt;div&gt;Job_activity Task&lt;/div&gt;" style="html=1;verticalAlign=bottom;endArrow=block;" edge="1" parent="58CB03ESVvraGdQvV3Id-1">
          <mxGeometry x="30" width="80" as="geometry">
            <mxPoint x="430" y="21.402439024390247" as="sourcePoint" />
            <mxPoint x="540" y="22" as="targetPoint" />
          </mxGeometry>
        </mxCell>
        <mxCell id="58CB03ESVvraGdQvV3Id-13" value="Pipeline Completed" style="rounded=1;whiteSpace=wrap;html=1;container=0;" vertex="1" parent="58CB03ESVvraGdQvV3Id-1">
          <mxGeometry x="1020" width="100" height="43.9" as="geometry" />
        </mxCell>
        <mxCell id="58CB03ESVvraGdQvV3Id-14" value="" style="shape=crossbar;whiteSpace=wrap;html=1;rounded=1;container=0;" vertex="1" parent="58CB03ESVvraGdQvV3Id-1">
          <mxGeometry x="920" y="46.1" width="200" height="21.95" as="geometry" />
        </mxCell>
        <mxCell id="58CB03ESVvraGdQvV3Id-15" value="&lt;div&gt;Pipeline Finish&lt;/div&gt;" style="html=1;verticalAlign=bottom;endArrow=block;exitX=1;exitY=0.5;exitDx=0;exitDy=0;" edge="1" parent="58CB03ESVvraGdQvV3Id-1" source="58CB03ESVvraGdQvV3Id-7">
          <mxGeometry x="-80" y="0.04999999999999716" width="80" as="geometry">
            <mxPoint x="950" y="22.001219512195107" as="sourcePoint" />
            <mxPoint x="1017" y="21.452439024390245" as="targetPoint" />
          </mxGeometry>
        </mxCell>
        <UserObject label="pipeline_finish_time: 0.79s" placeholders="1" id="58CB03ESVvraGdQvV3Id-16">
          <mxCell style="text;html=1;strokeColor=none;fillColor=none;align=center;verticalAlign=middle;whiteSpace=wrap;overflow=hidden;container=0;" vertex="1" parent="58CB03ESVvraGdQvV3Id-1">
            <mxGeometry x="935" y="68.05000000000001" width="170" height="21.95" as="geometry" />
          </mxCell>
        </UserObject>
        <UserObject label="job_create/running_time: 5.09s" placeholders="1" id="58CB03ESVvraGdQvV3Id-19">
          <mxCell style="text;html=1;strokeColor=none;fillColor=none;align=center;verticalAlign=middle;whiteSpace=wrap;overflow=hidden;container=0;" vertex="1" parent="58CB03ESVvraGdQvV3Id-1">
            <mxGeometry x="560" y="68.05" width="260" height="21.95" as="geometry" />
          </mxCell>
        </UserObject>
        <mxCell id="58CB03ESVvraGdQvV3Id-20" value="" style="shape=crossbar;whiteSpace=wrap;html=1;rounded=1;container=0;" vertex="1" parent="58CB03ESVvraGdQvV3Id-1">
          <mxGeometry y="46.1" width="430" height="21.95" as="geometry" />
        </mxCell>
        <mxCell id="58CB03ESVvraGdQvV3Id-23" value="" style="shape=crossbar;whiteSpace=wrap;html=1;rounded=1;container=0;" vertex="1" parent="58CB03ESVvraGdQvV3Id-1">
          <mxGeometry x="430" y="46.1" width="490" height="21.95" as="geometry" />
        </mxCell>
        <UserObject label="pod_create/init time: 5.14s" placeholders="1" id="58CB03ESVvraGdQvV3Id-26">
          <mxCell style="text;html=1;strokeColor=none;fillColor=none;align=center;verticalAlign=middle;whiteSpace=wrap;overflow=hidden;container=0;" vertex="1" parent="58CB03ESVvraGdQvV3Id-1">
            <mxGeometry x="130" y="68.04878048780489" width="160" height="21.951219512195124" as="geometry" />
          </mxCell>
        </UserObject>
      </root>
    </mxGraphModel>
  </diagram>
</mxfile>
